<svg width="21" height="20" viewBox="0 0 21 20" fill="none" xmlns="http://www.w3.org/2000/svg">
<g id="SVG">
<path id="Vector" d="M17.685 1.25H3.935C3.43772 1.25 2.9608 1.44754 2.60917 1.79917C2.25754 2.15081 2.06 2.62772 2.06 3.125L2.06 16.875C2.06 17.3723 2.25754 17.8492 2.60917 18.2008C2.9608 18.5525 3.43772 18.75 3.935 18.75H17.685C18.1823 18.75 18.6592 18.5525 19.0108 18.2008C19.3625 17.8492 19.56 17.3723 19.56 16.875V3.125C19.56 2.62772 19.3625 2.15081 19.0108 1.79917C18.6592 1.44754 18.1823 1.25 17.685 1.25ZM17.0448 13.2566L16.4588 15.7957C16.4291 15.9248 16.3564 16.04 16.2528 16.1225C16.1491 16.205 16.0206 16.2499 15.8881 16.25C9.63812 16.25 4.56 11.1832 4.56 4.92188C4.56465 4.79065 4.61129 4.66437 4.69307 4.56164C4.77485 4.4589 4.88745 4.38513 5.01429 4.35117L7.55336 3.76523C7.59667 3.75608 7.64074 3.75098 7.685 3.75C7.79831 3.75572 7.90802 3.79166 8.00274 3.8541C8.09746 3.91654 8.17375 4.0032 8.22367 4.10508L9.39554 6.83945C9.42425 6.91318 9.44023 6.99124 9.44281 7.07031C9.43327 7.24377 9.35614 7.40658 9.22797 7.52383L7.74789 8.73477C8.64469 10.6355 10.1745 12.1653 12.0752 13.0621L13.2862 11.582C13.4034 11.4539 13.5662 11.3767 13.7397 11.3672C13.8188 11.3697 13.8968 11.3857 13.9705 11.4145L16.7049 12.5863C16.8068 12.6362 16.8935 12.7125 16.956 12.8072C17.0184 12.9019 17.0544 13.0117 17.06 13.125C17.0592 13.1693 17.0541 13.2134 17.0448 13.2566Z" fill="white"/>
</g>
</svg>
