<svg width="15" height="15" viewBox="0 0 15 15" fill="none" xmlns="http://www.w3.org/2000/svg">
<g id="SVG">
<path id="Vector" d="M7.31 0.71875C3.5639 0.71875 0.528748 3.75391 0.528748 7.5C0.528748 11.2461 3.5639 14.2812 7.31 14.2812C11.0561 14.2812 14.0912 11.2461 14.0912 7.5C14.0912 3.75391 11.0561 0.71875 7.31 0.71875ZM9.83902 9.27734L9.29215 9.96094C9.25626 10.0058 9.21188 10.0432 9.16155 10.0709C9.11123 10.0986 9.05593 10.1161 8.99883 10.1225C8.94172 10.1288 8.88392 10.1239 8.82874 10.1079C8.77355 10.0919 8.72205 10.0652 8.67719 10.0293L6.84515 8.66977C6.71715 8.56728 6.61382 8.43732 6.54283 8.2895C6.47183 8.14169 6.43498 7.9798 6.435 7.81582V3.5625C6.435 3.44647 6.48109 3.33519 6.56314 3.25314C6.64519 3.17109 6.75647 3.125 6.8725 3.125H7.7475C7.86353 3.125 7.97481 3.17109 8.05686 3.25314C8.1389 3.33519 8.185 3.44647 8.185 3.5625V7.5L9.77094 8.66211C9.81582 8.69802 9.8532 8.74243 9.88091 8.79279C9.90863 8.84315 9.92615 8.89848 9.93248 8.95562C9.9388 9.01275 9.9338 9.07058 9.91776 9.12578C9.90173 9.18098 9.87497 9.23249 9.83902 9.27734Z" fill="white"/>
</g>
</svg>
