<svg width="20" height="21" viewBox="0 0 20 21" fill="none" xmlns="http://www.w3.org/2000/svg">
<g id="SVG">
<path id="Vector" d="M16.1289 4.29297C14.4922 2.65234 12.3125 1.75 9.99609 1.75C5.21484 1.75 1.32422 5.64062 1.32422 10.4219C1.32422 11.9492 1.72266 13.4414 2.48047 14.7578L1.25 19.25L5.84766 18.043C7.11328 18.7344 8.53906 19.0977 9.99219 19.0977H9.99609C14.7734 19.0977 18.75 15.207 18.75 10.4258C18.75 8.10938 17.7656 5.93359 16.1289 4.29297ZM9.99609 17.6367C8.69922 17.6367 7.42969 17.2891 6.32422 16.6328L6.0625 16.4766L3.33594 17.1914L4.0625 14.5312L3.89062 14.2578C3.16797 13.1094 2.78906 11.7852 2.78906 10.4219C2.78906 6.44922 6.02344 3.21484 10 3.21484C11.9258 3.21484 13.7344 3.96484 15.0938 5.32812C16.4531 6.69141 17.2891 8.5 17.2852 10.4258C17.2852 14.4023 13.9688 17.6367 9.99609 17.6367ZM13.9492 12.2383C13.7344 12.1289 12.668 11.6055 12.4688 11.5352C12.2695 11.4609 12.125 11.4258 11.9805 11.6445C11.8359 11.8633 11.4219 12.3477 11.293 12.4961C11.168 12.6406 11.0391 12.6602 10.8242 12.5508C9.55078 11.9141 8.71484 11.4141 7.875 9.97266C7.65234 9.58984 8.09766 9.61719 8.51172 8.78906C8.58203 8.64453 8.54687 8.51953 8.49219 8.41016C8.4375 8.30078 8.00391 7.23438 7.82422 6.80078C7.64844 6.37891 7.46875 6.4375 7.33594 6.42969C7.21094 6.42188 7.06641 6.42188 6.92188 6.42188C6.77734 6.42188 6.54297 6.47656 6.34375 6.69141C6.14453 6.91016 5.58594 7.43359 5.58594 8.5C5.58594 9.56641 6.36328 10.5977 6.46875 10.7422C6.57812 10.8867 7.99609 13.0742 10.1719 14.0156C11.5469 14.6094 12.0859 14.6602 12.7734 14.5586C13.1914 14.4961 14.0547 14.0352 14.2344 13.5273C14.4141 13.0195 14.4141 12.5859 14.3594 12.4961C14.3086 12.3984 14.1641 12.3438 13.9492 12.2383Z" fill="white"/>
</g>
</svg>
