<svg width="24" height="25" viewBox="0 0 24 25" fill="none" xmlns="http://www.w3.org/2000/svg">
<g id="SVG">
<path id="Vector" d="M23.625 12.28C23.625 18.7004 18.4203 23.905 12 23.905C5.57967 23.905 0.375 18.7004 0.375 12.28C0.375 5.8597 5.57967 0.655029 12 0.655029C18.4203 0.655029 23.625 5.8597 23.625 12.28ZM10.6553 18.4354L19.2803 9.81037C19.5732 9.5175 19.5732 9.04261 19.2803 8.74973L18.2197 7.68909C17.9268 7.39617 17.4519 7.39617 17.159 7.68909L10.125 14.7231L6.84098 11.439C6.54811 11.1462 6.07322 11.1462 5.7803 11.439L4.71966 12.4997C4.42678 12.7926 4.42678 13.2675 4.71966 13.5603L9.59466 18.4353C9.88758 18.7282 10.3624 18.7282 10.6553 18.4354Z" fill="#F0DBB3"/>
</g>
</svg>
